<svg width="75" height="105" xmlns="http://www.w3.org/2000/svg" version="1.1" enable-background="new 0 0 841.89 595.28" xml:space="preserve">
 <g>
  <title>Layer 1</title>
  <g id="svg_1" stroke="null">
   <g id="svg_2" stroke="null">
    <polygon points="31.393280029296875,67.60099792480469 29.2608642578125,72.09501647949219 34.069549560546875,78.95701599121094 36.655792236328125,78.95701599121094 36.655792236328125,67.60099792480469 " id="svg_3" stroke="null"/>
    <polygon fill="#6D6E70" points="27.422515869140625,49.62599182128906 23.54449462890625,58.95600891113281 31.393280029296875,67.60099792480469 36.655792236328125,67.60099792480469 36.655792236328125,51.62699890136719 " id="svg_4" stroke="null"/>
    <polygon fill="#58595B" points="23.953338623046875,15.631027221679688 29.2608642578125,29.257003784179688 27.422515869140625,49.62599182128906 36.655792236328125,51.62699890136719 36.655792236328125,20.888015747070312 " id="svg_5" stroke="null"/>
    <polygon fill="#A6A8AB" points="23.953338623046875,15.631027221679688 20.41436767578125,22.737991333007812 29.2608642578125,29.257003784179688 " id="svg_6" stroke="null"/>
    <polygon fill="#808184" points="20.41436767578125,22.737991333007812 9.93341064453125,25.996994018554688 28.439544677734375,38.36601257324219 29.2608642578125,29.257003784179688 " id="svg_7" stroke="null"/>
    <polygon fill="#A6A8AB" points="9.93341064453125,25.996994018554688 19.597625732421875,41.55400085449219 28.01873779296875,43.01701354980469 28.439544677734375,38.36601257324219 " id="svg_8" stroke="null"/>
    <polygon fill="#58595B" points="9.93341064453125,25.996994018554688 5.30755615234375,36.96101379394531 11.2279052734375,54.66401672363281 19.597625732421875,41.55400085449219 " id="svg_9" stroke="null"/>
    <polygon points="19.597625732421875,41.55400085449219 22.115875244140625,48.73899841308594 27.422515869140625,49.62599182128906 28.01873779296875,43.01701354980469 " id="svg_10" stroke="null"/>
    <polygon fill="#58595B" points="23.54449462890625,58.95600891113281 23.54449462890625,71.47599792480469 25.58502197265625,77.03099060058594 29.2608642578125,72.09501647949219 31.393280029296875,67.60099792480469 " id="svg_11" stroke="null"/>
    <polygon fill="#A6A8AB" points="22.115875244140625,48.73899841308594 19.597625732421875,41.55400085449219 14.278106689453125,49.88600158691406 23.54449462890625,58.95600891113281 27.422515869140625,49.62599182128906 " id="svg_12" stroke="null"/>
    <polygon fill="#BBBDBF" points="14.278106689453125,49.88600158691406 11.2279052734375,54.66401672363281 23.54449462890625,71.47599792480469 23.54449462890625,58.95600891113281 " id="svg_13" stroke="null"/>
    <polygon fill="#6D6E70" points="34.069549560546875,78.95701599121094 29.2608642578125,72.09501647949219 25.58502197265625,77.03099060058594 30.30364990234375,82.80799865722656 36.655792236328125,82.80799865722656 36.655792236328125,78.95701599121094 " id="svg_14" stroke="null"/>
    <polygon fill="#BBBDBF" points="30.30364990234375,82.80799865722656 26.21893310546875,77.80699157714844 23.80816650390625,98.60899353027344 36.655792236328125,105.22700500488281 36.655792236328125,82.80799865722656 " id="svg_15" stroke="null"/>
    <polygon fill="#808184" points="12.45257568359375,0 7.41607666015625,9.628005981445312 20.41436767578125,22.737991333007812 23.953338623046875,15.631027221679688 " id="svg_16" stroke="null"/>
    <polygon fill="#58595B" points="7.41607666015625,9.628005981445312 9.93341064453125,25.996994018554688 20.41436767578125,22.737991333007812 " id="svg_17" stroke="null"/>
    <polygon fill="#808184" points="23.953338623046875,15.631027221679688 36.655792236328125,20.888015747070312 36.655792236328125,13.998001098632812 " id="svg_18" stroke="null"/>
    <polygon fill="#A6A8AB" points="25.58502197265625,77.03099060058594 23.54449462890625,71.47599792480469 6.260284423828125,81.17799377441406 23.80816650390625,98.60899353027344 26.21893310546875,77.80699157714844 " id="svg_19" stroke="null"/>
    <polygon fill="#58595B" points="11.2279052734375,54.66401672363281 0,63.40101623535156 6.260284423828125,81.17799377441406 23.54449462890625,71.47599792480469 " id="svg_20" stroke="null"/>
    <polygon fill="#6D6E70" points="5.30755615234375,36.96101379394531 0,63.40101623535156 11.2279052734375,54.66401672363281 " id="svg_21" stroke="null"/>
    <polygon points="41.91925048828125,67.60099792480469 44.0498046875,72.09501647949219 39.241119384765625,78.95701599121094 36.655792236328125,78.95701599121094 36.655792236328125,67.60099792480469 " id="svg_22" stroke="null"/>
    <polygon fill="#A6A8AB" points="45.888214111328125,49.62599182128906 49.767120361328125,58.95600891113281 41.91925048828125,67.60099792480469 36.655792236328125,67.60099792480469 36.655792236328125,51.62699890136719 " id="svg_23" stroke="null"/>
    <polygon fill="#404041" points="49.3582763671875,15.631027221679688 44.0498046875,29.257003784179688 45.888214111328125,49.62599182128906 36.655792236328125,51.62699890136719 36.655792236328125,20.888015747070312 " id="svg_24" stroke="null"/>
    <polygon fill="#A6A8AB" points="49.3582763671875,15.631027221679688 52.898162841796875,22.737991333007812 44.0498046875,29.257003784179688 " id="svg_25" stroke="null"/>
    <polygon fill="#808184" points="52.898162841796875,22.737991333007812 63.3763427734375,25.996994018554688 44.87298583984375,38.36601257324219 44.0498046875,29.257003784179688 " id="svg_26" stroke="null"/>
    <polygon fill="#A6A8AB" points="63.3763427734375,25.996994018554688 53.7139892578125,41.55400085449219 45.29193115234375,43.01701354980469 44.87298583984375,38.36601257324219 " id="svg_27" stroke="null"/>
    <polygon fill="#58595B" points="63.3763427734375,25.996994018554688 68.00497436523438,36.96101379394531 62.082794189453125,54.66401672363281 53.7139892578125,41.55400085449219 " id="svg_28" stroke="null"/>
    <polygon points="53.7139892578125,41.55400085449219 51.194854736328125,48.73899841308594 45.888214111328125,49.62599182128906 45.29193115234375,43.01701354980469 " id="svg_29" stroke="null"/>
    <polygon fill="#58595B" points="49.767120361328125,58.95600891113281 49.767120361328125,71.47599792480469 47.725677490234375,77.03099060058594 44.0498046875,72.09501647949219 41.91925048828125,67.60099792480469 " id="svg_30" stroke="null"/>
    <polygon fill="#6D6E70" points="51.194854736328125,48.73899841308594 53.7139892578125,41.55400085449219 59.032562255859375,49.88600158691406 49.767120361328125,58.95600891113281 45.888214111328125,49.62599182128906 " id="svg_31" stroke="null"/>
    <polygon fill="#BBBDBF" points="59.032562255859375,49.88600158691406 62.082794189453125,54.66401672363281 49.767120361328125,71.47599792480469 49.767120361328125,58.95600891113281 " id="svg_32" stroke="null"/>
    <polygon fill="#A6A8AB" points="39.241119384765625,78.95701599121094 44.0498046875,72.09501647949219 47.725677490234375,77.03099060058594 43.007965087890625,82.80799865722656 36.655792236328125,82.80799865722656 36.655792236328125,78.95701599121094 " id="svg_33" stroke="null"/>
    <polygon fill="#58595B" points="43.007965087890625,82.80799865722656 47.08990478515625,77.80699157714844 49.50250244140625,98.60899353027344 36.655792236328125,105.22700500488281 36.655792236328125,82.80799865722656 " id="svg_34" stroke="null"/>
    <polygon fill="#808184" points="60.85809326171875,0 65.8946533203125,9.628005981445312 52.898162841796875,22.737991333007812 49.3582763671875,15.631027221679688 " id="svg_35" stroke="null"/>
    <polygon fill="#58595B" points="65.8946533203125,9.628005981445312 63.3763427734375,25.996994018554688 52.898162841796875,22.737991333007812 " id="svg_36" stroke="null"/>
    <polygon fill="#58595B" points="49.3582763671875,15.631027221679688 36.655792236328125,20.888015747070312 36.655792236328125,13.998001098632812 " id="svg_37" stroke="null"/>
    <polygon fill="#A6A8AB" points="47.725677490234375,77.03099060058594 49.767120361328125,71.47599792480469 67.05130004882812,81.17799377441406 49.50250244140625,98.60899353027344 47.08990478515625,77.80699157714844 " id="svg_38" stroke="null"/>
    <polygon fill="#58595B" points="62.082794189453125,54.66401672363281 73.3106689453125,63.40101623535156 67.05130004882812,81.17799377441406 49.767120361328125,71.47599792480469 " id="svg_39" stroke="null"/>
    <polygon fill="#6D6E70" points="68.00497436523438,36.96101379394531 73.3106689453125,63.40101623535156 62.082794189453125,54.66401672363281 " id="svg_40" stroke="null"/>
   </g>
  </g>
 </g>

</svg>